# Tiled2Unity generated file. Do not modify by hand.
# Wavefront file for 'dark_mesh_0004.obj'

# Vertices (Count = 888)
v -125 -14 0
v -126 -14 0
v -126 -13 0
v -125 -13 0
v -89 -15 0
v -90 -15 0
v -90 -14 0
v -89 -14 0
v -90 -15 0
v -91 -15 0
v -91 -14 0
v -90 -14 0
v -91 -15 0
v -92 -15 0
v -92 -14 0
v -91 -14 0
v -93 -15 0
v -94 -15 0
v -94 -14 0
v -93 -14 0
v -93 -16 0
v -94 -16 0
v -94 -15 0
v -93 -15 0
v -94 -16 0
v -95 -16 0
v -95 -15 0
v -94 -15 0
v -123 -16 0
v -124 -16 0
v -124 -15 0
v -123 -15 0
v -83 -17 0
v -84 -17 0
v -84 -16 0
v -83 -16 0
v -84 -17 0
v -85 -17 0
v -85 -16 0
v -84 -16 0
v -85 -17 0
v -86 -17 0
v -86 -16 0
v -85 -16 0
v -86 -17 0
v -87 -17 0
v -87 -16 0
v -86 -16 0
v -93 -17 0
v -94 -17 0
v -94 -16 0
v -93 -16 0
v -94 -17 0
v -95 -17 0
v -95 -16 0
v -94 -16 0
v -93 -18 0
v -94 -18 0
v -94 -17 0
v -93 -17 0
v -94 -18 0
v -95 -18 0
v -95 -17 0
v -94 -17 0
v -96 -18 0
v -97 -18 0
v -97 -17 0
v -96 -17 0
v -121 -18 0
v -122 -18 0
v -122 -17 0
v -121 -17 0
v -63 -19 0
v -64 -19 0
v -64 -18 0
v -63 -18 0
v -93 -19 0
v -94 -19 0
v -94 -18 0
v -93 -18 0
v -94 -19 0
v -95 -19 0
v -95 -18 0
v -94 -18 0
v -96 -19 0
v -97 -19 0
v -97 -18 0
v -96 -18 0
v -97 -19 0
v -98 -19 0
v -98 -18 0
v -97 -18 0
v -63 -20 0
v -64 -20 0
v -64 -19 0
v -63 -19 0
v -88 -20 0
v -89 -20 0
v -89 -19 0
v -88 -19 0
v -93 -20 0
v -94 -20 0
v -94 -19 0
v -93 -19 0
v -94 -20 0
v -95 -20 0
v -95 -19 0
v -94 -19 0
v -95 -20 0
v -96 -20 0
v -96 -19 0
v -95 -19 0
v -96 -20 0
v -97 -20 0
v -97 -19 0
v -96 -19 0
v -97 -20 0
v -98 -20 0
v -98 -19 0
v -97 -19 0
v -119 -20 0
v -120 -20 0
v -120 -19 0
v -119 -19 0
v -60 -21 0
v -61 -21 0
v -61 -20 0
v -60 -20 0
v -61 -21 0
v -62 -21 0
v -62 -20 0
v -61 -20 0
v -62 -21 0
v -63 -21 0
v -63 -20 0
v -62 -20 0
v -63 -21 0
v -64 -21 0
v -64 -20 0
v -63 -20 0
v -74 -21 0
v -75 -21 0
v -75 -20 0
v -74 -20 0
v -75 -21 0
v -76 -21 0
v -76 -20 0
v -75 -20 0
v -76 -21 0
v -77 -21 0
v -77 -20 0
v -76 -20 0
v -77 -21 0
v -78 -21 0
v -78 -20 0
v -77 -20 0
v -78 -21 0
v -79 -21 0
v -79 -20 0
v -78 -20 0
v -79 -21 0
v -80 -21 0
v -80 -20 0
v -79 -20 0
v -88 -21 0
v -89 -21 0
v -89 -20 0
v -88 -20 0
v -89 -21 0
v -90 -21 0
v -90 -20 0
v -89 -20 0
v -93 -21 0
v -94 -21 0
v -94 -20 0
v -93 -20 0
v -94 -21 0
v -95 -21 0
v -95 -20 0
v -94 -20 0
v -95 -21 0
v -96 -21 0
v -96 -20 0
v -95 -20 0
v -96 -21 0
v -97 -21 0
v -97 -20 0
v -96 -20 0
v -97 -21 0
v -98 -21 0
v -98 -20 0
v -97 -20 0
v -99 -21 0
v -100 -21 0
v -100 -20 0
v -99 -20 0
v -44 -22 0
v -45 -22 0
v -45 -21 0
v -44 -21 0
v -45 -22 0
v -46 -22 0
v -46 -21 0
v -45 -21 0
v -46 -22 0
v -47 -22 0
v -47 -21 0
v -46 -21 0
v -47 -22 0
v -48 -22 0
v -48 -21 0
v -47 -21 0
v -48 -22 0
v -49 -22 0
v -49 -21 0
v -48 -21 0
v -63 -22 0
v -64 -22 0
v -64 -21 0
v -63 -21 0
v -64 -22 0
v -65 -22 0
v -65 -21 0
v -64 -21 0
v -65 -22 0
v -66 -22 0
v -66 -21 0
v -65 -21 0
v -81 -22 0
v -82 -22 0
v -82 -21 0
v -81 -21 0
v -88 -22 0
v -89 -22 0
v -89 -21 0
v -88 -21 0
v -89 -22 0
v -90 -22 0
v -90 -21 0
v -89 -21 0
v -90 -22 0
v -91 -22 0
v -91 -21 0
v -90 -21 0
v -93 -22 0
v -94 -22 0
v -94 -21 0
v -93 -21 0
v -94 -22 0
v -95 -22 0
v -95 -21 0
v -94 -21 0
v -95 -22 0
v -96 -22 0
v -96 -21 0
v -95 -21 0
v -96 -22 0
v -97 -22 0
v -97 -21 0
v -96 -21 0
v -97 -22 0
v -98 -22 0
v -98 -21 0
v -97 -21 0
v -99 -22 0
v -100 -22 0
v -100 -21 0
v -99 -21 0
v -100 -22 0
v -101 -22 0
v -101 -21 0
v -100 -21 0
v -117 -22 0
v -118 -22 0
v -118 -21 0
v -117 -21 0
v -37 -23 0
v -38 -23 0
v -38 -22 0
v -37 -22 0
v -38 -23 0
v -39 -23 0
v -39 -22 0
v -38 -22 0
v -39 -23 0
v -40 -23 0
v -40 -22 0
v -39 -22 0
v -63 -23 0
v -64 -23 0
v -64 -22 0
v -63 -22 0
v -72 -23 0
v -73 -23 0
v -73 -22 0
v -72 -22 0
v -81 -23 0
v -82 -23 0
v -82 -22 0
v -81 -22 0
v -88 -23 0
v -89 -23 0
v -89 -22 0
v -88 -22 0
v -89 -23 0
v -90 -23 0
v -90 -22 0
v -89 -22 0
v -90 -23 0
v -91 -23 0
v -91 -22 0
v -90 -22 0
v -91 -23 0
v -92 -23 0
v -92 -22 0
v -91 -22 0
v -93 -23 0
v -94 -23 0
v -94 -22 0
v -93 -22 0
v -94 -23 0
v -95 -23 0
v -95 -22 0
v -94 -22 0
v -95 -23 0
v -96 -23 0
v -96 -22 0
v -95 -22 0
v -96 -23 0
v -97 -23 0
v -97 -22 0
v -96 -22 0
v -97 -23 0
v -98 -23 0
v -98 -22 0
v -97 -22 0
v -98 -23 0
v -99 -23 0
v -99 -22 0
v -98 -22 0
v -99 -23 0
v -100 -23 0
v -100 -22 0
v -99 -22 0
v -100 -23 0
v -101 -23 0
v -101 -22 0
v -100 -22 0
v -51 -24 0
v -52 -24 0
v -52 -23 0
v -51 -23 0
v -52 -24 0
v -53 -24 0
v -53 -23 0
v -52 -23 0
v -53 -24 0
v -54 -24 0
v -54 -23 0
v -53 -23 0
v -54 -24 0
v -55 -24 0
v -55 -23 0
v -54 -23 0
v -55 -24 0
v -56 -24 0
v -56 -23 0
v -55 -23 0
v -56 -24 0
v -57 -24 0
v -57 -23 0
v -56 -23 0
v -57 -24 0
v -58 -24 0
v -58 -23 0
v -57 -23 0
v -61 -24 0
v -62 -24 0
v -62 -23 0
v -61 -23 0
v -62 -24 0
v -63 -24 0
v -63 -23 0
v -62 -23 0
v -63 -24 0
v -64 -24 0
v -64 -23 0
v -63 -23 0
v -69 -24 0
v -70 -24 0
v -70 -23 0
v -69 -23 0
v -70 -24 0
v -71 -24 0
v -71 -23 0
v -70 -23 0
v -71 -24 0
v -72 -24 0
v -72 -23 0
v -71 -23 0
v -72 -24 0
v -73 -24 0
v -73 -23 0
v -72 -23 0
v -73 -24 0
v -74 -24 0
v -74 -23 0
v -73 -23 0
v -74 -24 0
v -75 -24 0
v -75 -23 0
v -74 -23 0
v -75 -24 0
v -76 -24 0
v -76 -23 0
v -75 -23 0
v -76 -24 0
v -77 -24 0
v -77 -23 0
v -76 -23 0
v -77 -24 0
v -78 -24 0
v -78 -23 0
v -77 -23 0
v -78 -24 0
v -79 -24 0
v -79 -23 0
v -78 -23 0
v -79 -24 0
v -80 -24 0
v -80 -23 0
v -79 -23 0
v -80 -24 0
v -81 -24 0
v -81 -23 0
v -80 -23 0
v -81 -24 0
v -82 -24 0
v -82 -23 0
v -81 -23 0
v -82 -24 0
v -83 -24 0
v -83 -23 0
v -82 -23 0
v -83 -24 0
v -84 -24 0
v -84 -23 0
v -83 -23 0
v -87 -24 0
v -88 -24 0
v -88 -23 0
v -87 -23 0
v -88 -24 0
v -89 -24 0
v -89 -23 0
v -88 -23 0
v -89 -24 0
v -90 -24 0
v -90 -23 0
v -89 -23 0
v -90 -24 0
v -91 -24 0
v -91 -23 0
v -90 -23 0
v -91 -24 0
v -92 -24 0
v -92 -23 0
v -91 -23 0
v -92 -24 0
v -93 -24 0
v -93 -23 0
v -92 -23 0
v -93 -24 0
v -94 -24 0
v -94 -23 0
v -93 -23 0
v -94 -24 0
v -95 -24 0
v -95 -23 0
v -94 -23 0
v -95 -24 0
v -96 -24 0
v -96 -23 0
v -95 -23 0
v -96 -24 0
v -97 -24 0
v -97 -23 0
v -96 -23 0
v -97 -24 0
v -98 -24 0
v -98 -23 0
v -97 -23 0
v -98 -24 0
v -99 -24 0
v -99 -23 0
v -98 -23 0
v -99 -24 0
v -100 -24 0
v -100 -23 0
v -99 -23 0
v -100 -24 0
v -101 -24 0
v -101 -23 0
v -100 -23 0
v -101 -24 0
v -102 -24 0
v -102 -23 0
v -101 -23 0
v -63 -25 0
v -64 -25 0
v -64 -24 0
v -63 -24 0
v -64 -25 0
v -65 -25 0
v -65 -24 0
v -64 -24 0
v -65 -25 0
v -66 -25 0
v -66 -24 0
v -65 -24 0
v -66 -25 0
v -67 -25 0
v -67 -24 0
v -66 -24 0
v -44 -26 0
v -45 -26 0
v -45 -25 0
v -44 -25 0
v -45 -26 0
v -46 -26 0
v -46 -25 0
v -45 -25 0
v -46 -26 0
v -47 -26 0
v -47 -25 0
v -46 -25 0
v -47 -26 0
v -48 -26 0
v -48 -25 0
v -47 -25 0
v -48 -26 0
v -49 -26 0
v -49 -25 0
v -48 -25 0
v -63 -26 0
v -64 -26 0
v -64 -25 0
v -63 -25 0
v -64 -26 0
v -65 -26 0
v -65 -25 0
v -64 -25 0
v -65 -26 0
v -66 -26 0
v -66 -25 0
v -65 -25 0
v -66 -26 0
v -67 -26 0
v -67 -25 0
v -66 -25 0
v -104 -26 0
v -105 -26 0
v -105 -25 0
v -104 -25 0
v -110 -26 0
v -111 -26 0
v -111 -25 0
v -110 -25 0
v -60 -27 0
v -61 -27 0
v -61 -26 0
v -60 -26 0
v -61 -27 0
v -62 -27 0
v -62 -26 0
v -61 -26 0
v -62 -27 0
v -63 -27 0
v -63 -26 0
v -62 -26 0
v -63 -27 0
v -64 -27 0
v -64 -26 0
v -63 -26 0
v -64 -27 0
v -65 -27 0
v -65 -26 0
v -64 -26 0
v -65 -27 0
v -66 -27 0
v -66 -26 0
v -65 -26 0
v -66 -27 0
v -67 -27 0
v -67 -26 0
v -66 -26 0
v -104 -27 0
v -105 -27 0
v -105 -26 0
v -104 -26 0
v -105 -27 0
v -106 -27 0
v -106 -26 0
v -105 -26 0
v -109 -27 0
v -110 -27 0
v -110 -26 0
v -109 -26 0
v -110 -27 0
v -111 -27 0
v -111 -26 0
v -110 -26 0
v -111 -27 0
v -112 -27 0
v -112 -26 0
v -111 -26 0
v -63 -28 0
v -64 -28 0
v -64 -27 0
v -63 -27 0
v -64 -28 0
v -65 -28 0
v -65 -27 0
v -64 -27 0
v -65 -28 0
v -66 -28 0
v -66 -27 0
v -65 -27 0
v -66 -28 0
v -67 -28 0
v -67 -27 0
v -66 -27 0
v -104 -28 0
v -105 -28 0
v -105 -27 0
v -104 -27 0
v -105 -28 0
v -106 -28 0
v -106 -27 0
v -105 -27 0
v -106 -28 0
v -107 -28 0
v -107 -27 0
v -106 -27 0
v -108 -28 0
v -109 -28 0
v -109 -27 0
v -108 -27 0
v -109 -28 0
v -110 -28 0
v -110 -27 0
v -109 -27 0
v -110 -28 0
v -111 -28 0
v -111 -27 0
v -110 -27 0
v -111 -28 0
v -112 -28 0
v -112 -27 0
v -111 -27 0
v -63 -29 0
v -64 -29 0
v -64 -28 0
v -63 -28 0
v -64 -29 0
v -65 -29 0
v -65 -28 0
v -64 -28 0
v -65 -29 0
v -66 -29 0
v -66 -28 0
v -65 -28 0
v -66 -29 0
v -67 -29 0
v -67 -28 0
v -66 -28 0
v -104 -29 0
v -105 -29 0
v -105 -28 0
v -104 -28 0
v -105 -29 0
v -106 -29 0
v -106 -28 0
v -105 -28 0
v -106 -29 0
v -107 -29 0
v -107 -28 0
v -106 -28 0
v -107 -29 0
v -108 -29 0
v -108 -28 0
v -107 -28 0
v -108 -29 0
v -109 -29 0
v -109 -28 0
v -108 -28 0
v -109 -29 0
v -110 -29 0
v -110 -28 0
v -109 -28 0
v -110 -29 0
v -111 -29 0
v -111 -28 0
v -110 -28 0
v -111 -29 0
v -112 -29 0
v -112 -28 0
v -111 -28 0
v -34 -30 0
v -35 -30 0
v -35 -29 0
v -34 -29 0
v -35 -30 0
v -36 -30 0
v -36 -29 0
v -35 -29 0
v -36 -30 0
v -37 -30 0
v -37 -29 0
v -36 -29 0
v -37 -30 0
v -38 -30 0
v -38 -29 0
v -37 -29 0
v -38 -30 0
v -39 -30 0
v -39 -29 0
v -38 -29 0
v -39 -30 0
v -40 -30 0
v -40 -29 0
v -39 -29 0
v -40 -30 0
v -41 -30 0
v -41 -29 0
v -40 -29 0
v -41 -30 0
v -42 -30 0
v -42 -29 0
v -41 -29 0
v -42 -30 0
v -43 -30 0
v -43 -29 0
v -42 -29 0
v -43 -30 0
v -44 -30 0
v -44 -29 0
v -43 -29 0
v -44 -30 0
v -45 -30 0
v -45 -29 0
v -44 -29 0
v -45 -30 0
v -46 -30 0
v -46 -29 0
v -45 -29 0
v -46 -30 0
v -47 -30 0
v -47 -29 0
v -46 -29 0
v -47 -30 0
v -48 -30 0
v -48 -29 0
v -47 -29 0
v -48 -30 0
v -49 -30 0
v -49 -29 0
v -48 -29 0
v -49 -30 0
v -50 -30 0
v -50 -29 0
v -49 -29 0
v -50 -30 0
v -51 -30 0
v -51 -29 0
v -50 -29 0
v -51 -30 0
v -52 -30 0
v -52 -29 0
v -51 -29 0
v -52 -30 0
v -53 -30 0
v -53 -29 0
v -52 -29 0
v -53 -30 0
v -54 -30 0
v -54 -29 0
v -53 -29 0
v -54 -30 0
v -55 -30 0
v -55 -29 0
v -54 -29 0
v -55 -30 0
v -56 -30 0
v -56 -29 0
v -55 -29 0
v -56 -30 0
v -57 -30 0
v -57 -29 0
v -56 -29 0
v -57 -30 0
v -58 -30 0
v -58 -29 0
v -57 -29 0
v -58 -30 0
v -59 -30 0
v -59 -29 0
v -58 -29 0
v -59 -30 0
v -60 -30 0
v -60 -29 0
v -59 -29 0
v -60 -30 0
v -61 -30 0
v -61 -29 0
v -60 -29 0
v -61 -30 0
v -62 -30 0
v -62 -29 0
v -61 -29 0
v -62 -30 0
v -63 -30 0
v -63 -29 0
v -62 -29 0
v -63 -30 0
v -64 -30 0
v -64 -29 0
v -63 -29 0
v -64 -30 0
v -65 -30 0
v -65 -29 0
v -64 -29 0
v -65 -30 0
v -66 -30 0
v -66 -29 0
v -65 -29 0
v -66 -30 0
v -67 -30 0
v -67 -29 0
v -66 -29 0
v -104 -30 0
v -105 -30 0
v -105 -29 0
v -104 -29 0
v -105 -30 0
v -106 -30 0
v -106 -29 0
v -105 -29 0
v -106 -30 0
v -107 -30 0
v -107 -29 0
v -106 -29 0
v -107 -30 0
v -108 -30 0
v -108 -29 0
v -107 -29 0
v -108 -30 0
v -109 -30 0
v -109 -29 0
v -108 -29 0
v -109 -30 0
v -110 -30 0
v -110 -29 0
v -109 -29 0
v -110 -30 0
v -111 -30 0
v -111 -29 0
v -110 -29 0
v -111 -30 0
v -112 -30 0
v -112 -29 0
v -111 -29 0
v -112 -30 0
v -113 -30 0
v -113 -29 0
v -112 -29 0
v -113 -30 0
v -114 -30 0
v -114 -29 0
v -113 -29 0
v -114 -30 0
v -115 -30 0
v -115 -29 0
v -114 -29 0
v -116 -30 0
v -117 -30 0
v -117 -29 0
v -116 -29 0

# Texture cooridinates (Count = 13)
vt 0.25 0.5
vt 0.5 0.5
vt 0.5 0.75
vt 0.25 0.75
vt 0 0.25
vt 0.25 0.25
vt 0 0.5
vt 0.5 0.25
vt 0.75 0.25
vt 0.75 0.5
vt 0 0.75
vt 0.25 1
vt 0 1

# Normal
vn 0 0 -1

# Mesh description
g dark_mesh_0004

# Faces
f 1/1/1 2/2/1 3/3/1 4/4/1
f 5/5/1 6/6/1 7/1/1 8/7/1
f 9/6/1 10/8/1 11/2/1 12/1/1
f 13/8/1 14/9/1 15/10/1 16/2/1
f 17/1/1 18/2/1 19/3/1 20/4/1
f 21/11/1 22/4/1 23/12/1 24/13/1
f 25/1/1 26/2/1 27/3/1 28/4/1
f 29/1/1 30/2/1 31/3/1 32/4/1
f 33/5/1 34/6/1 35/1/1 36/7/1
f 37/6/1 38/8/1 39/2/1 40/1/1
f 41/6/1 42/8/1 43/2/1 44/1/1
f 45/8/1 46/9/1 47/10/1 48/2/1
f 49/11/1 50/4/1 51/12/1 52/13/1
f 53/11/1 54/4/1 55/12/1 56/13/1
f 57/11/1 58/4/1 59/12/1 60/13/1
f 61/11/1 62/4/1 63/12/1 64/13/1
f 65/1/1 66/2/1 67/3/1 68/4/1
f 69/1/1 70/2/1 71/3/1 72/4/1
f 73/1/1 74/2/1 75/3/1 76/4/1
f 77/11/1 78/4/1 79/12/1 80/13/1
f 81/11/1 82/4/1 83/12/1 84/13/1
f 85/11/1 86/4/1 87/12/1 88/13/1
f 89/1/1 90/2/1 91/3/1 92/4/1
f 93/11/1 94/4/1 95/12/1 96/13/1
f 97/1/1 98/2/1 99/3/1 100/4/1
f 101/11/1 102/4/1 103/12/1 104/13/1
f 105/11/1 106/4/1 107/12/1 108/13/1
f 109/1/1 110/2/1 111/3/1 112/4/1
f 113/11/1 114/4/1 115/12/1 116/13/1
f 117/11/1 118/4/1 119/12/1 120/13/1
f 121/1/1 122/2/1 123/3/1 124/4/1
f 125/1/1 126/2/1 127/3/1 128/4/1
f 129/1/1 130/2/1 131/3/1 132/4/1
f 133/1/1 134/2/1 135/3/1 136/4/1
f 137/11/1 138/4/1 139/12/1 140/13/1
f 141/5/1 142/6/1 143/1/1 144/7/1
f 145/6/1 146/8/1 147/2/1 148/1/1
f 149/6/1 150/8/1 151/2/1 152/1/1
f 153/6/1 154/8/1 155/2/1 156/1/1
f 157/6/1 158/8/1 159/2/1 160/1/1
f 161/8/1 162/9/1 163/10/1 164/2/1
f 165/11/1 166/4/1 167/12/1 168/13/1
f 169/1/1 170/2/1 171/3/1 172/4/1
f 173/11/1 174/4/1 175/12/1 176/13/1
f 177/11/1 178/4/1 179/12/1 180/13/1
f 181/11/1 182/4/1 183/12/1 184/13/1
f 185/11/1 186/4/1 187/12/1 188/13/1
f 189/11/1 190/4/1 191/12/1 192/13/1
f 193/1/1 194/2/1 195/3/1 196/4/1
f 197/5/1 198/6/1 199/1/1 200/7/1
f 201/6/1 202/8/1 203/2/1 204/1/1
f 205/6/1 206/8/1 207/2/1 208/1/1
f 209/6/1 210/8/1 211/2/1 212/1/1
f 213/8/1 214/9/1 215/10/1 216/2/1
f 217/11/1 218/4/1 219/12/1 220/13/1
f 221/1/1 222/2/1 223/3/1 224/4/1
f 225/1/1 226/2/1 227/3/1 228/4/1
f 229/1/1 230/2/1 231/3/1 232/4/1
f 233/11/1 234/4/1 235/12/1 236/13/1
f 237/11/1 238/4/1 239/12/1 240/13/1
f 241/1/1 242/2/1 243/3/1 244/4/1
f 245/11/1 246/4/1 247/12/1 248/13/1
f 249/11/1 250/4/1 251/12/1 252/13/1
f 253/11/1 254/4/1 255/12/1 256/13/1
f 257/11/1 258/4/1 259/12/1 260/13/1
f 261/11/1 262/4/1 263/12/1 264/13/1
f 265/11/1 266/4/1 267/12/1 268/13/1
f 269/1/1 270/2/1 271/3/1 272/4/1
f 273/1/1 274/2/1 275/3/1 276/4/1
f 277/5/1 278/6/1 279/1/1 280/7/1
f 281/6/1 282/8/1 283/2/1 284/1/1
f 285/8/1 286/9/1 287/10/1 288/2/1
f 289/11/1 290/4/1 291/12/1 292/13/1
f 293/1/1 294/2/1 295/3/1 296/4/1
f 297/11/1 298/4/1 299/12/1 300/13/1
f 301/11/1 302/4/1 303/12/1 304/13/1
f 305/11/1 306/4/1 307/12/1 308/13/1
f 309/11/1 310/4/1 311/12/1 312/13/1
f 313/1/1 314/2/1 315/3/1 316/4/1
f 317/11/1 318/4/1 319/12/1 320/13/1
f 321/11/1 322/4/1 323/12/1 324/13/1
f 325/11/1 326/4/1 327/12/1 328/13/1
f 329/11/1 330/4/1 331/12/1 332/13/1
f 333/11/1 334/4/1 335/12/1 336/13/1
f 337/1/1 338/2/1 339/3/1 340/4/1
f 341/11/1 342/4/1 343/12/1 344/13/1
f 345/11/1 346/4/1 347/12/1 348/13/1
f 349/5/1 350/6/1 351/1/1 352/7/1
f 353/6/1 354/8/1 355/2/1 356/1/1
f 357/6/1 358/8/1 359/2/1 360/1/1
f 361/6/1 362/8/1 363/2/1 364/1/1
f 365/6/1 366/8/1 367/2/1 368/1/1
f 369/6/1 370/8/1 371/2/1 372/1/1
f 373/8/1 374/9/1 375/10/1 376/2/1
f 377/1/1 378/2/1 379/3/1 380/4/1
f 381/1/1 382/2/1 383/3/1 384/4/1
f 385/11/1 386/4/1 387/12/1 388/13/1
f 389/1/1 390/2/1 391/3/1 392/4/1
f 393/1/1 394/2/1 395/3/1 396/4/1
f 397/1/1 398/2/1 399/3/1 400/4/1
f 401/11/1 402/4/1 403/12/1 404/13/1
f 405/1/1 406/2/1 407/3/1 408/4/1
f 409/1/1 410/2/1 411/3/1 412/4/1
f 413/1/1 414/2/1 415/3/1 416/4/1
f 417/1/1 418/2/1 419/3/1 420/4/1
f 421/1/1 422/2/1 423/3/1 424/4/1
f 425/1/1 426/2/1 427/3/1 428/4/1
f 429/1/1 430/2/1 431/3/1 432/4/1
f 433/1/1 434/2/1 435/3/1 436/4/1
f 437/11/1 438/4/1 439/12/1 440/13/1
f 441/1/1 442/2/1 443/3/1 444/4/1
f 445/1/1 446/2/1 447/3/1 448/4/1
f 449/1/1 450/2/1 451/3/1 452/4/1
f 453/11/1 454/4/1 455/12/1 456/13/1
f 457/11/1 458/4/1 459/12/1 460/13/1
f 461/11/1 462/4/1 463/12/1 464/13/1
f 465/11/1 466/4/1 467/12/1 468/13/1
f 469/1/1 470/2/1 471/3/1 472/4/1
f 473/11/1 474/4/1 475/12/1 476/13/1
f 477/11/1 478/4/1 479/12/1 480/13/1
f 481/11/1 482/4/1 483/12/1 484/13/1
f 485/11/1 486/4/1 487/12/1 488/13/1
f 489/11/1 490/4/1 491/12/1 492/13/1
f 493/11/1 494/4/1 495/12/1 496/13/1
f 497/11/1 498/4/1 499/12/1 500/13/1
f 501/11/1 502/4/1 503/12/1 504/13/1
f 505/1/1 506/2/1 507/3/1 508/4/1
f 509/11/1 510/4/1 511/12/1 512/13/1
f 513/1/1 514/2/1 515/3/1 516/4/1
f 517/1/1 518/2/1 519/3/1 520/4/1
f 521/1/1 522/2/1 523/3/1 524/4/1
f 525/5/1 526/6/1 527/1/1 528/7/1
f 529/6/1 530/8/1 531/2/1 532/1/1
f 533/6/1 534/8/1 535/2/1 536/1/1
f 537/6/1 538/8/1 539/2/1 540/1/1
f 541/8/1 542/9/1 543/10/1 544/2/1
f 545/11/1 546/4/1 547/12/1 548/13/1
f 549/11/1 550/4/1 551/12/1 552/13/1
f 553/11/1 554/4/1 555/12/1 556/13/1
f 557/11/1 558/4/1 559/12/1 560/13/1
f 561/1/1 562/2/1 563/3/1 564/4/1
f 565/1/1 566/2/1 567/3/1 568/4/1
f 569/1/1 570/2/1 571/3/1 572/4/1
f 573/1/1 574/2/1 575/3/1 576/4/1
f 577/1/1 578/2/1 579/3/1 580/4/1
f 581/11/1 582/4/1 583/12/1 584/13/1
f 585/11/1 586/4/1 587/12/1 588/13/1
f 589/11/1 590/4/1 591/12/1 592/13/1
f 593/11/1 594/4/1 595/12/1 596/13/1
f 597/11/1 598/4/1 599/12/1 600/13/1
f 601/1/1 602/2/1 603/3/1 604/4/1
f 605/1/1 606/2/1 607/3/1 608/4/1
f 609/11/1 610/4/1 611/12/1 612/13/1
f 613/1/1 614/2/1 615/3/1 616/4/1
f 617/11/1 618/4/1 619/12/1 620/13/1
f 621/11/1 622/4/1 623/12/1 624/13/1
f 625/11/1 626/4/1 627/12/1 628/13/1
f 629/11/1 630/4/1 631/12/1 632/13/1
f 633/11/1 634/4/1 635/12/1 636/13/1
f 637/11/1 638/4/1 639/12/1 640/13/1
f 641/1/1 642/2/1 643/3/1 644/4/1
f 645/1/1 646/2/1 647/3/1 648/4/1
f 649/11/1 650/4/1 651/12/1 652/13/1
f 653/11/1 654/4/1 655/12/1 656/13/1
f 657/11/1 658/4/1 659/12/1 660/13/1
f 661/11/1 662/4/1 663/12/1 664/13/1
f 665/11/1 666/4/1 667/12/1 668/13/1
f 669/11/1 670/4/1 671/12/1 672/13/1
f 673/11/1 674/4/1 675/12/1 676/13/1
f 677/11/1 678/4/1 679/12/1 680/13/1
f 681/11/1 682/4/1 683/12/1 684/13/1
f 685/11/1 686/4/1 687/12/1 688/13/1
f 689/1/1 690/2/1 691/3/1 692/4/1
f 693/11/1 694/4/1 695/12/1 696/13/1
f 697/11/1 698/4/1 699/12/1 700/13/1
f 701/11/1 702/4/1 703/12/1 704/13/1
f 705/11/1 706/4/1 707/12/1 708/13/1
f 709/1/1 710/2/1 711/3/1 712/4/1
f 713/1/1 714/2/1 715/3/1 716/4/1
f 717/1/1 718/2/1 719/3/1 720/4/1
f 721/1/1 722/2/1 723/3/1 724/4/1
f 725/1/1 726/2/1 727/3/1 728/4/1
f 729/1/1 730/2/1 731/3/1 732/4/1
f 733/1/1 734/2/1 735/3/1 736/4/1
f 737/1/1 738/2/1 739/3/1 740/4/1
f 741/1/1 742/2/1 743/3/1 744/4/1
f 745/1/1 746/2/1 747/3/1 748/4/1
f 749/1/1 750/2/1 751/3/1 752/4/1
f 753/1/1 754/2/1 755/3/1 756/4/1
f 757/1/1 758/2/1 759/3/1 760/4/1
f 761/1/1 762/2/1 763/3/1 764/4/1
f 765/1/1 766/2/1 767/3/1 768/4/1
f 769/1/1 770/2/1 771/3/1 772/4/1
f 773/1/1 774/2/1 775/3/1 776/4/1
f 777/1/1 778/2/1 779/3/1 780/4/1
f 781/1/1 782/2/1 783/3/1 784/4/1
f 785/1/1 786/2/1 787/3/1 788/4/1
f 789/1/1 790/2/1 791/3/1 792/4/1
f 793/1/1 794/2/1 795/3/1 796/4/1
f 797/1/1 798/2/1 799/3/1 800/4/1
f 801/1/1 802/2/1 803/3/1 804/4/1
f 805/1/1 806/2/1 807/3/1 808/4/1
f 809/1/1 810/2/1 811/3/1 812/4/1
f 813/1/1 814/2/1 815/3/1 816/4/1
f 817/1/1 818/2/1 819/3/1 820/4/1
f 821/1/1 822/2/1 823/3/1 824/4/1
f 825/11/1 826/4/1 827/12/1 828/13/1
f 829/11/1 830/4/1 831/12/1 832/13/1
f 833/11/1 834/4/1 835/12/1 836/13/1
f 837/11/1 838/4/1 839/12/1 840/13/1
f 841/11/1 842/4/1 843/12/1 844/13/1
f 845/11/1 846/4/1 847/12/1 848/13/1
f 849/11/1 850/4/1 851/12/1 852/13/1
f 853/11/1 854/4/1 855/12/1 856/13/1
f 857/11/1 858/4/1 859/12/1 860/13/1
f 861/11/1 862/4/1 863/12/1 864/13/1
f 865/11/1 866/4/1 867/12/1 868/13/1
f 869/11/1 870/4/1 871/12/1 872/13/1
f 873/1/1 874/2/1 875/3/1 876/4/1
f 877/1/1 878/2/1 879/3/1 880/4/1
f 881/1/1 882/2/1 883/3/1 884/4/1
f 885/1/1 886/2/1 887/3/1 888/4/1

