# Tiled2Unity generated file. Do not modify by hand.
# Wavefront file for '1-1_mesh_0004.obj'

# Vertices (Count = 88)
v -19 -11 0
v -20.10938 -11 0
v -20.10938 -9.890625 0
v -19 -9.890625 0
v -23 -12 0
v -24.10938 -12 0
v -24.10938 -10.89063 0
v -23 -10.89063 0
v -52 -12 0
v -53.10938 -12 0
v -53.10938 -10.89063 0
v -52 -10.89063 0
v -16 -13 0
v -17.10938 -13 0
v -17.10938 -11.89063 0
v -16 -11.89063 0
v -53 -13 0
v -54.10938 -13 0
v -54.10938 -11.89063 0
v -53 -11.89063 0
v -22 -14 0
v -23.10938 -14 0
v -23.10938 -12.89063 0
v -22 -12.89063 0
v -24 -14 0
v -25.10938 -14 0
v -25.10938 -12.89063 0
v -24 -12.89063 0
v -54 -14 0
v -55.10938 -14 0
v -55.10938 -12.89063 0
v -54 -12.89063 0
v -7 -15 0
v -8.109375 -15 0
v -8.109375 -13.89063 0
v -7 -13.89063 0
v -9 -15 0
v -10.10938 -15 0
v -10.10938 -13.89063 0
v -9 -13.89063 0
v -11 -15 0
v -12.10938 -15 0
v -12.10938 -13.89063 0
v -11 -13.89063 0
v -13 -15 0
v -14.10938 -15 0
v -14.10938 -13.89063 0
v -13 -13.89063 0
v -55 -15 0
v -56.10938 -15 0
v -56.10938 -13.89063 0
v -55 -13.89063 0
v -23 -16 0
v -24.10938 -16 0
v -24.10938 -14.89063 0
v -23 -14.89063 0
v -56 -16 0
v -57.10938 -16 0
v -57.10938 -14.89063 0
v -56 -14.89063 0
v -57 -17 0
v -58.10938 -17 0
v -58.10938 -15.89063 0
v -57 -15.89063 0
v -5 -18 0
v -6.109375 -18 0
v -6.109375 -16.89063 0
v -5 -16.89063 0
v -8 -18 0
v -9.109375 -18 0
v -9.109375 -16.89063 0
v -8 -16.89063 0
v -10 -18 0
v -11.10938 -18 0
v -11.10938 -16.89063 0
v -10 -16.89063 0
v -12 -18 0
v -13.10938 -18 0
v -13.10938 -16.89063 0
v -12 -16.89063 0
v -14 -18 0
v -15.10938 -18 0
v -15.10938 -16.89063 0
v -14 -16.89063 0
v -58 -18 0
v -59.10938 -18 0
v -59.10938 -16.89063 0
v -58 -16.89063 0

# Texture cooridinates (Count = 4)
vt 0 0
vt 1 0
vt 1 1
vt 0 1

# Normal
vn 0 0 -1

# Mesh description
g 1-1_mesh_0004

# Faces
f 1/1/1 2/2/1 3/3/1 4/4/1
f 5/1/1 6/2/1 7/3/1 8/4/1
f 9/1/1 10/2/1 11/3/1 12/4/1
f 13/2/1 14/3/1 15/4/1 16/1/1
f 17/1/1 18/2/1 19/3/1 20/4/1
f 21/1/1 22/2/1 23/3/1 24/4/1
f 25/1/1 26/2/1 27/3/1 28/4/1
f 29/1/1 30/2/1 31/3/1 32/4/1
f 33/1/1 34/2/1 35/3/1 36/4/1
f 37/1/1 38/2/1 39/3/1 40/4/1
f 41/1/1 42/2/1 43/3/1 44/4/1
f 45/1/1 46/2/1 47/3/1 48/4/1
f 49/1/1 50/2/1 51/3/1 52/4/1
f 53/1/1 54/2/1 55/3/1 56/4/1
f 57/1/1 58/2/1 59/3/1 60/4/1
f 61/1/1 62/2/1 63/3/1 64/4/1
f 65/1/1 66/2/1 67/3/1 68/4/1
f 69/2/1 70/3/1 71/4/1 72/1/1
f 73/2/1 74/3/1 75/4/1 76/1/1
f 77/2/1 78/3/1 79/4/1 80/1/1
f 81/2/1 82/3/1 83/4/1 84/1/1
f 85/1/1 86/2/1 87/3/1 88/4/1

